<svg width="21" height="21" viewBox="0 0 21 21" fill="none" xmlns="http://www.w3.org/2000/svg">
<path d="M2.95837 19.1837H18.3297" stroke="black" stroke-opacity="0.7" stroke-width="1.02476" stroke-linecap="round" stroke-linejoin="round"/>
<path d="M5.17866 7.55267H3.81234C3.34266 7.55267 2.95837 7.93696 2.95837 8.40664V15.7678C2.95837 16.2375 3.34266 16.6218 3.81234 16.6218H5.17866C5.64834 16.6218 6.03262 16.2375 6.03262 15.7678V8.40664C6.03262 7.93696 5.64834 7.55267 5.17866 7.55267Z" stroke="black" stroke-opacity="0.7" stroke-width="1.02476" stroke-linecap="round" stroke-linejoin="round"/>
<path d="M11.3272 4.82855H9.9609C9.49122 4.82855 9.10693 5.21284 9.10693 5.68252V15.7678C9.10693 16.2375 9.49122 16.6218 9.9609 16.6218H11.3272C11.7969 16.6218 12.1812 16.2375 12.1812 15.7678V5.68252C12.1812 5.21284 11.7969 4.82855 11.3272 4.82855Z" stroke="black" stroke-opacity="0.7" stroke-width="1.02476" stroke-linecap="round" stroke-linejoin="round"/>
<path d="M17.4757 2.1044H16.1094C15.6397 2.1044 15.2554 2.48868 15.2554 2.95836V15.7678C15.2554 16.2375 15.6397 16.6218 16.1094 16.6218H17.4757C17.9454 16.6218 18.3297 16.2375 18.3297 15.7678V2.95836C18.3297 2.48868 17.9454 2.1044 17.4757 2.1044Z" stroke="black" stroke-opacity="0.7" stroke-width="1.02476" stroke-linecap="round" stroke-linejoin="round"/>
</svg>
