<svg width="12" height="12" viewBox="0 0 12 12" fill="none" xmlns="http://www.w3.org/2000/svg">
<path fill-rule="evenodd" clip-rule="evenodd" d="M7.5 2.25H9.75V3H9V9.75L8.25 10.5H3L2.25 9.75V3H1.5V2.25H3.75V1.5C3.75 1.30109 3.82902 1.11032 3.96967 0.96967C4.11032 0.829018 4.30109 0.75 4.5 0.75H6.75C6.94891 0.75 7.13968 0.829018 7.28033 0.96967C7.42098 1.11032 7.5 1.30109 7.5 1.5V2.25ZM6.75 1.5H4.5V2.25H6.75V1.5ZM3 9.75H8.25V3H3V9.75ZM4.5 3.75H3.75V9H4.5V3.75ZM5.25 3.75H6V9H5.25V3.75ZM6.75 3.75H7.5V9H6.75V3.75Z" fill="black"/>
</svg>
