<svg width="12" height="12" viewBox="0 0 12 12" fill="none" xmlns="http://www.w3.org/2000/svg">
<path d="M10.8125 0.859375H3.8125C3.72548 0.859375 3.64202 0.893945 3.58048 0.955481C3.51895 1.01702 3.48438 1.10048 3.48438 1.1875V3.48438H1.1875C1.10048 3.48438 1.01702 3.51895 0.955481 3.58048C0.893945 3.64202 0.859375 3.72548 0.859375 3.8125V10.8125C0.859375 10.8995 0.893945 10.983 0.955481 11.0445C1.01702 11.1061 1.10048 11.1406 1.1875 11.1406H8.1875C8.27452 11.1406 8.35798 11.1061 8.41952 11.0445C8.48106 10.983 8.51562 10.8995 8.51562 10.8125V8.51562H10.8125C10.8995 8.51562 10.983 8.48106 11.0445 8.41952C11.1061 8.35798 11.1406 8.27452 11.1406 8.1875V1.1875C11.1406 1.10048 11.1061 1.01702 11.0445 0.955481C10.983 0.893945 10.8995 0.859375 10.8125 0.859375ZM7.85938 10.4844H1.51562V4.14062H7.85938V10.4844ZM10.4844 7.85938H8.51562V3.8125C8.51562 3.72548 8.48106 3.64202 8.41952 3.58048C8.35798 3.51895 8.27452 3.48438 8.1875 3.48438H4.14062V1.51562H10.4844V7.85938Z" fill="black"/>
</svg>
