<svg width="16" height="16" viewBox="0 0 16 16" fill="none" xmlns="http://www.w3.org/2000/svg">
<path d="M8.89857 7.99639L15.6522 1.23619C15.7713 1.11646 15.8382 0.954384 15.838 0.78547C15.8379 0.616556 15.7709 0.454571 15.6516 0.334994C15.4128 0.097394 14.9922 0.0961942 14.751 0.336194L7.99917 7.09639L1.24497 0.334394C1.00497 0.0973941 0.58437 0.098594 0.34557 0.335594C0.286298 0.39463 0.239376 0.46488 0.207545 0.542245C0.175713 0.619609 0.159608 0.702539 0.16017 0.786194C0.16017 0.956594 0.22617 1.11619 0.34557 1.23439L7.09917 7.99579L0.34617 14.7578C0.227002 14.8777 0.160266 15.04 0.160603 15.2091C0.160941 15.3781 0.228324 15.5402 0.347971 15.6596C0.463771 15.7742 0.62757 15.8402 0.79677 15.8402H0.80037C0.97017 15.8396 1.13397 15.773 1.24737 15.6572L7.99917 8.897L14.7534 15.659C14.8728 15.7778 15.0324 15.8438 15.2016 15.8438C15.2852 15.844 15.3681 15.8277 15.4455 15.7958C15.5228 15.7639 15.5931 15.717 15.6522 15.6579C15.7114 15.5987 15.7583 15.5284 15.7902 15.4511C15.8221 15.3737 15.8384 15.2909 15.8382 15.2072C15.8382 15.0374 15.7722 14.8772 15.6522 14.759L8.89857 7.99639Z" fill="black"/>
</svg>
