<svg width="32" height="32" viewBox="0 0 32 32" fill="none" xmlns="http://www.w3.org/2000/svg">
<rect width="32" height="32" fill="white"/>
<circle cx="17.5354" cy="16.9118" r="13.0909" fill="white"/>
<path d="M17.4546 26.1818C22.2745 26.1818 26.1818 22.2745 26.1818 17.4546C26.1818 12.6346 22.2745 8.72729 17.4546 8.72729C12.6346 8.72729 8.72729 12.6346 8.72729 17.4546C8.72729 22.2745 12.6346 26.1818 17.4546 26.1818Z" fill="#3E73C4"/>
<path d="M19.6481 18.6131C19.6481 17.4545 18.9499 17.0575 17.5535 16.8916C16.5564 16.7591 16.3574 16.4945 16.3574 16.0309C16.3574 15.5673 16.6901 15.2695 17.3544 15.2695C17.9528 15.2695 18.2855 15.468 18.4514 15.9649C18.4686 16.013 18.5002 16.0546 18.5419 16.0841C18.5835 16.1137 18.6332 16.1297 18.6843 16.1302H19.2161C19.2468 16.131 19.2774 16.1256 19.3059 16.1142C19.3345 16.1029 19.3604 16.0859 19.3822 16.0642C19.404 16.0425 19.4211 16.0166 19.4326 15.9881C19.4441 15.9596 19.4497 15.9291 19.449 15.8984V15.8656C19.384 15.5061 19.2021 15.1781 18.9315 14.9326C18.661 14.6871 18.3169 14.5379 17.9528 14.508V13.7138C17.9528 13.5813 17.853 13.482 17.6872 13.4487H17.1881C17.0555 13.4487 16.9557 13.548 16.9224 13.7138V14.4753C15.9248 14.6073 15.2937 15.2695 15.2937 16.0975C15.2937 17.1895 15.9581 17.6198 17.3544 17.7856C18.2855 17.9509 18.5844 18.15 18.5844 18.6796C18.5844 19.2087 18.1192 19.5731 17.4875 19.5731C16.623 19.5731 16.3241 19.2093 16.2243 18.7124C16.1915 18.5804 16.0912 18.5138 15.9914 18.5138H15.4263C15.3956 18.5131 15.3651 18.5186 15.3366 18.5299C15.3081 18.5413 15.2822 18.5584 15.2605 18.58C15.2388 18.6017 15.2217 18.6275 15.2102 18.656C15.1988 18.6845 15.1932 18.715 15.1939 18.7456V18.7784C15.3264 19.6064 15.8588 20.202 16.9557 20.3678V21.1625C16.9557 21.2945 17.0555 21.3944 17.2214 21.4271H17.7204C17.853 21.4271 17.9528 21.3278 17.9861 21.1625V20.3673C18.9837 20.202 19.6481 19.5065 19.6481 18.6125V18.6131Z" fill="white"/>
<path d="M15.7593 22.0893C13.1662 21.162 11.8364 18.282 12.8008 15.7331C13.2993 14.3422 14.3962 13.2835 15.7593 12.7866C15.8924 12.7206 15.9584 12.6213 15.9584 12.4555V11.9918C15.9584 11.8598 15.8924 11.7606 15.7593 11.7273C15.726 11.7273 15.6595 11.7273 15.6262 11.76C14.8781 11.9937 14.1836 12.373 13.5826 12.8761C12.9817 13.3793 12.4862 13.9963 12.1247 14.6917C11.7633 15.3872 11.5429 16.1472 11.4764 16.9282C11.4099 17.7091 11.4985 18.4955 11.7371 19.242C12.3349 21.0966 13.7646 22.5202 15.6262 23.1158C15.7593 23.1818 15.8924 23.1158 15.9251 22.9833C15.9584 22.9506 15.9584 22.9167 15.9584 22.8507V22.3871C15.9584 22.2878 15.8591 22.1558 15.7593 22.0893ZM19.2829 11.7606C19.1499 11.694 19.0168 11.7606 18.984 11.8926C18.9508 11.9258 18.9508 11.9591 18.9508 12.0251V12.4887C18.9508 12.6213 19.05 12.7533 19.1499 12.8198C21.7429 13.7471 23.0728 16.6271 22.1084 19.176C21.6099 20.5669 20.5129 21.6257 19.1499 22.1226C19.0168 22.1886 18.9508 22.2878 18.9508 22.4537V22.9173C18.9508 23.0493 19.0168 23.1486 19.1499 23.1818C19.1831 23.1818 19.2497 23.1818 19.2829 23.1491C20.0311 22.9155 20.7256 22.5362 21.3265 22.033C21.9275 21.5299 22.4229 20.9128 22.7844 20.2174C23.1459 19.522 23.3662 18.7619 23.4328 17.981C23.4993 17.2 23.4107 16.4137 23.172 15.6671C22.5742 13.7798 21.1113 12.3562 19.2829 11.7606Z" fill="white"/>
</svg>
