<svg width="238" height="58" viewBox="0 0 238 58" fill="none" xmlns="http://www.w3.org/2000/svg">
<path d="M11.2 45.35C9.33333 45.35 7.5 45.1333 5.7 44.7C3.93333 44.2667 2.33333 43.6333 0.9 42.8L3.4 33.95L7.05 34.6C6.81667 36.5333 6.7 37.8833 6.7 38.65C6.7 39.45 6.75 40.2 6.85 40.9C8.15 41.9667 9.58333 42.5 11.15 42.5C12.65 42.5 13.8833 42 14.85 41C15.85 40 16.35 38.65 16.35 36.95C16.35 35.55 15.9167 34.3833 15.05 33.45C14.2167 32.4833 12.7833 31.4667 10.75 30.4C8.51667 29.2667 6.83333 28.05 5.7 26.75C4.6 25.45 4.05 23.9 4.05 22.1C4.05 20 4.61667 18.1333 5.75 16.5C6.91667 14.8333 8.48333 13.55 10.45 12.65C12.4167 11.7167 14.5667 11.25 16.9 11.25C18.6333 11.25 20.2167 11.5167 21.65 12.05C23.0833 12.5833 24.2 13.3 25 14.2C25.8 15.1 26.2 16.1 26.2 17.2C26.2 18.4333 25.8333 19.45 25.1 20.25C24.3667 21.05 23.45 21.45 22.35 21.45C21.0833 21.45 19.8833 20.95 18.75 19.95C19.3167 19.4167 19.75 18.8667 20.05 18.3C20.3833 17.7 20.55 17.1333 20.55 16.6C20.55 15.7667 20.1833 15.1167 19.45 14.65C18.75 14.1833 17.7833 13.95 16.55 13.95C14.9833 13.95 13.7 14.4 12.7 15.3C11.7 16.1667 11.2 17.3333 11.2 18.8C11.2 20 11.6 21.0167 12.4 21.85C13.2333 22.65 14.75 23.6167 16.95 24.75C19.3167 25.9833 21.0667 27.3167 22.2 28.75C23.3333 30.1833 23.9 31.9 23.9 33.9C23.9 36.2 23.35 38.2167 22.25 39.95C21.1833 41.6833 19.6833 43.0167 17.75 43.95C15.8167 44.8833 13.6333 45.35 11.2 45.35ZM28.0852 26.7C27.8185 24.6333 26.7185 23.6167 24.7852 23.65L24.4852 22.05C25.2185 21.5833 26.2352 21.2167 27.5352 20.95C28.8352 20.6833 30.2185 20.55 31.6852 20.55C32.5185 20.55 33.1352 20.5667 33.5352 20.6L35.9352 38.7C37.7685 35.7 39.0852 33.4 39.8852 31.8C40.7185 30.2 41.2685 28.8167 41.5352 27.65C41.8018 26.4833 41.9352 25.05 41.9352 23.35V21.15C43.3352 20.9167 45.1518 20.8 47.3852 20.8L49.8352 39C52.4018 35 54.1852 31.95 55.1852 29.85C56.2185 27.7167 56.7352 26.1 56.7352 25C56.7352 23.8333 55.9685 23.2167 54.4352 23.15L54.2352 21.3C56.0018 20.7667 57.8852 20.5 59.8852 20.5C60.7852 20.5 61.4518 20.5333 61.8852 20.6L62.7352 21.9C62.7352 22.6333 62.2685 24.0333 61.3352 26.1C60.4352 28.1667 59.3852 30.1 58.1852 31.9L49.1352 45.35C47.0685 45.35 45.5018 45.2333 44.4352 45L42.8852 33.35L35.2352 45.35C34.9352 45.3833 34.4685 45.4 33.8352 45.4C32.5018 45.4 31.4018 45.2667 30.5352 45L28.0852 26.7ZM70.4734 56C69.4068 56 68.5068 55.6833 67.7734 55.05C67.0734 54.45 66.7234 53.6 66.7234 52.5C66.7234 51.5333 67.0234 50.45 67.6234 49.25C68.2568 48.0833 69.1068 46.75 70.1734 45.25C69.2401 45.1833 68.6068 45.1 68.2734 45L65.8234 26.7C65.6901 25.6333 65.3734 24.8667 64.8734 24.4C64.3734 23.9 63.6734 23.65 62.7734 23.65L62.4734 22.05C63.2068 21.5833 64.2568 21.2167 65.6234 20.95C67.0234 20.6833 68.5068 20.55 70.0734 20.55C70.9068 20.55 71.5401 20.5667 71.9734 20.6L74.4234 39.25C76.1901 36.45 77.6068 33.9833 78.6734 31.85C79.7734 29.6833 80.5068 28.1167 80.8734 27.15C81.1401 26.35 81.2734 25.6333 81.2734 25C81.2734 24.2667 81.0568 23.7833 80.6234 23.55C80.1901 23.3167 79.6568 23.1833 79.0234 23.15L78.8234 21.3C80.5901 20.7667 82.4734 20.5 84.4734 20.5C85.0068 20.5 85.6734 20.5333 86.4734 20.6L87.3234 21.9C86.5901 24.9 85.2734 27.9333 83.3734 31L72.2734 48.25C71.7401 49.0833 71.4734 49.7833 71.4734 50.35C71.4734 50.75 71.6068 51.0667 71.8734 51.3C72.1734 51.5667 72.5734 51.7 73.0734 51.7C73.7068 51.7 74.2734 51.5 74.7734 51.1C74.8401 51.5667 74.8734 51.9 74.8734 52.1C74.8734 53.1667 74.4568 54.0833 73.6234 54.85C72.8234 55.6167 71.7734 56 70.4734 56ZM84.684 55.95C82.8173 55.95 81.3507 55.5667 80.284 54.8C79.2173 54.0333 78.684 52.9833 78.684 51.65C78.684 50.5833 79.0173 49.7167 79.684 49.05C80.3507 48.3833 81.1673 48.05 82.134 48.05C82.8007 48.05 83.384 48.2333 83.884 48.6C84.384 48.9667 84.7007 49.4833 84.834 50.15C84.5007 50.3167 84.234 50.55 84.034 50.85C83.834 51.1833 83.734 51.55 83.734 51.95C83.734 52.45 83.9007 52.8333 84.234 53.1C84.534 53.4 84.9507 53.55 85.484 53.55C86.9173 53.55 87.884 52.4833 88.384 50.35C88.584 49.4167 88.784 47.8167 88.984 45.55C89.1173 43.6833 89.2507 42.3333 89.384 41.5L92.034 24.25H88.084L88.484 22.2C89.984 21.9667 91.334 21.6 92.534 21.1L92.884 18.9C93.184 17.1333 93.8173 15.55 94.784 14.15C95.7507 12.7167 96.984 11.6 98.484 10.8C100.017 9.96666 101.717 9.55 103.584 9.55C105.417 9.55 106.901 9.95 108.034 10.75C109.201 11.5167 109.784 12.5167 109.784 13.75C109.784 14.95 109.417 15.9 108.684 16.6C107.951 17.2667 107.084 17.6 106.084 17.6C105.384 17.6 104.784 17.4167 104.284 17.05C103.784 16.65 103.517 16.1167 103.484 15.45C104.384 14.75 104.834 13.9667 104.834 13.1C104.834 12.0333 104.217 11.5 102.984 11.5C101.951 11.5 101.084 11.95 100.384 12.85C99.7173 13.7167 99.384 14.8833 99.384 16.35C99.384 16.7833 99.4007 17.1667 99.434 17.5C99.4673 17.8 99.5007 18.0667 99.534 18.3C99.634 18.9 99.684 19.45 99.684 19.95C99.684 20.1833 99.6507 20.5667 99.584 21.1H104.784L104.284 24.25H99.084L96.284 42.05C95.884 44.65 95.3507 46.9 94.684 48.8C94.0173 50.7333 92.884 52.4 91.284 53.8C89.684 55.2333 87.484 55.95 84.684 55.95ZM111.284 45.2C109.551 45.2 108.234 44.8 107.334 44C106.468 43.2 106.034 42.0667 106.034 40.6C106.034 39.9 106.684 35.4667 107.984 27.3L108.484 24.35H104.934L105.284 22.15C106.984 21.55 108.568 20.7 110.034 19.6C111.534 18.5 112.768 17.2333 113.734 15.8H116.984L116.184 21.1H122.584L122.034 24.35H115.584L115.134 27.05C114.934 28.35 114.568 30.7 114.034 34.1C113.501 37.4667 113.234 39.35 113.234 39.75C113.234 40.9167 113.851 41.5 115.084 41.5C115.618 41.5 116.301 41.3167 117.134 40.95C118.001 40.5833 118.768 40.1833 119.434 39.75L120.634 41.4C119.534 42.4333 118.101 43.3333 116.334 44.1C114.568 44.8333 112.884 45.2 111.284 45.2ZM132.272 45.35C129.272 45.35 126.889 44.4833 125.122 42.75C123.355 40.9833 122.472 38.6 122.472 35.6C122.472 32.6667 123.055 30.05 124.222 27.75C125.389 25.45 127.039 23.65 129.172 22.35C131.339 21.05 133.839 20.4 136.672 20.4C139.405 20.4 141.472 20.8833 142.872 21.85C144.272 22.8167 144.972 24.05 144.972 25.55C144.972 28.35 143.622 30.55 140.922 32.15C138.222 33.7167 134.455 34.5 129.622 34.5C129.489 35.4667 129.422 36.3 129.422 37C129.422 38.5667 129.839 39.7833 130.672 40.65C131.505 41.4833 132.689 41.9 134.222 41.9C135.455 41.9 136.755 41.65 138.122 41.15C139.522 40.65 140.739 39.9833 141.772 39.15L143.422 41.1C141.822 42.4333 140.039 43.4833 138.072 44.25C136.139 44.9833 134.205 45.35 132.272 45.35ZM130.072 31.6C131.572 31.5667 132.989 31.2667 134.322 30.7C135.655 30.1333 136.722 29.4 137.522 28.5C138.355 27.5667 138.772 26.5667 138.772 25.5C138.772 24.6667 138.555 24.0167 138.122 23.55C137.689 23.0833 137.039 22.85 136.172 22.85C134.505 22.85 133.205 23.5833 132.272 25.05C131.372 26.4833 130.639 28.6667 130.072 31.6ZM152.993 45.4C151.693 45.4 150.326 45.1667 148.893 44.7C147.46 44.2 146.243 43.55 145.243 42.75L146.843 36.5L149.593 37C149.526 37.8 149.493 38.55 149.493 39.25C149.493 39.9833 149.543 40.65 149.643 41.25C149.976 41.7167 150.493 42.1167 151.193 42.45C151.893 42.75 152.66 42.9 153.493 42.9C154.593 42.9 155.526 42.55 156.293 41.85C157.06 41.1167 157.443 40.2 157.443 39.1C157.443 38.2333 157.076 37.4667 156.343 36.8C155.643 36.1333 154.443 35.4667 152.743 34.8C150.843 34.0333 149.443 33.1333 148.543 32.1C147.676 31.0333 147.243 29.6667 147.243 28C147.243 26.6 147.643 25.3167 148.443 24.15C149.243 22.9833 150.426 22.0667 151.993 21.4C153.56 20.7333 155.46 20.4 157.693 20.4C159.993 20.4 161.91 20.8833 163.443 21.85C165.01 22.7833 165.793 23.9833 165.793 25.45C165.793 26.45 165.426 27.2833 164.693 27.95C163.993 28.6167 163.093 28.95 161.993 28.95C161.293 28.95 160.66 28.8 160.093 28.5C159.526 28.2 159.093 27.8 158.793 27.3C159.226 27 159.56 26.6333 159.793 26.2C160.06 25.7333 160.193 25.2667 160.193 24.8C160.193 24.1667 159.943 23.65 159.443 23.25C158.976 22.85 158.31 22.65 157.443 22.65C156.376 22.65 155.476 23 154.743 23.7C154.043 24.4 153.693 25.2333 153.693 26.2C153.693 27.0667 154.026 27.8 154.693 28.4C155.393 28.9667 156.676 29.6167 158.543 30.35C160.476 31.1167 161.91 32.05 162.843 33.15C163.776 34.2167 164.243 35.4833 164.243 36.95C164.243 39.4167 163.31 41.45 161.443 43.05C159.61 44.6167 156.793 45.4 152.993 45.4Z" fill="black"/>
<rect x="189" y="29" width="49" height="24" rx="12" fill="black"/>
<path d="M199.408 44.508C199.56 44.476 199.684 44.436 199.78 44.388C199.884 44.332 199.988 44.252 200.092 44.148V37.848C199.948 37.704 199.704 37.576 199.36 37.464L199.408 36.996H202.792C203.84 36.996 204.64 37.168 205.192 37.512C205.744 37.848 206.02 38.34 206.02 38.988C206.02 39.428 205.896 39.792 205.648 40.08C205.4 40.36 205.036 40.564 204.556 40.692C205.116 40.86 205.544 41.124 205.84 41.484C206.144 41.836 206.296 42.256 206.296 42.744C206.296 43.448 206.008 44 205.432 44.4C204.856 44.8 204.064 45 203.056 45H199.36L199.408 44.508ZM202.516 40.404C203.612 40.404 204.16 39.94 204.16 39.012C204.16 38.596 204.028 38.28 203.764 38.064C203.5 37.84 203.124 37.728 202.636 37.728C202.332 37.728 202.072 37.744 201.856 37.776V40.404H202.516ZM202.672 44.256C203.256 44.256 203.684 44.136 203.956 43.896C204.236 43.656 204.376 43.276 204.376 42.756C204.376 42.228 204.216 41.832 203.896 41.568C203.584 41.296 203.12 41.16 202.504 41.16H201.856V44.22C202.168 44.244 202.44 44.256 202.672 44.256ZM207.253 44.508C207.381 44.492 207.513 44.456 207.649 44.4C207.785 44.336 207.881 44.272 207.937 44.208V37.788C207.745 37.62 207.501 37.504 207.205 37.44L207.241 36.996H213.073L213.121 38.976C212.937 39.032 212.769 39.06 212.617 39.06C212.537 39.06 212.409 39.044 212.233 39.012C212.169 38.708 212.097 38.46 212.017 38.268C211.937 38.068 211.837 37.888 211.717 37.728H209.701V40.572L210.817 40.488C210.961 40.472 211.093 40.392 211.213 40.248C211.341 40.104 211.433 39.916 211.489 39.684H212.113V42.168H211.489C211.377 41.848 211.269 41.624 211.165 41.496C211.061 41.368 210.941 41.296 210.805 41.28L209.701 41.184V44.256H211.801C212.057 43.872 212.245 43.364 212.365 42.732C212.533 42.708 212.697 42.696 212.857 42.696C212.993 42.696 213.125 42.708 213.253 42.732L213.133 45H207.205L207.253 44.508ZM215.565 44.508C215.909 44.46 216.197 44.34 216.429 44.148V37.74C216.149 37.748 215.825 37.768 215.457 37.8L215.217 37.812C215.089 37.988 214.981 38.208 214.893 38.472C214.813 38.728 214.769 38.972 214.761 39.204C214.617 39.228 214.473 39.24 214.329 39.24C214.201 39.24 214.069 39.228 213.933 39.204V36.948C215.165 36.98 216.289 36.996 217.305 36.996C217.913 36.996 218.549 36.992 219.213 36.984C219.885 36.968 220.377 36.956 220.689 36.948V39.204C220.561 39.228 220.429 39.24 220.293 39.24C220.149 39.24 220.005 39.228 219.861 39.204C219.829 38.94 219.773 38.688 219.693 38.448C219.621 38.2 219.533 37.992 219.429 37.824C219.029 37.768 218.617 37.736 218.193 37.728V44.148C218.361 44.308 218.661 44.428 219.093 44.508L219.009 45H215.517L215.565 44.508ZM219.877 44.52C220.077 44.512 220.241 44.476 220.369 44.412C220.505 44.348 220.593 44.264 220.633 44.16L223.165 36.996H224.413L226.969 44.04C227.017 44.168 227.097 44.272 227.209 44.352C227.329 44.424 227.501 44.48 227.725 44.52L227.665 45H224.377L224.449 44.52C224.817 44.464 225.057 44.364 225.169 44.22L224.605 42.504H222.133L221.557 44.16C221.781 44.344 222.121 44.464 222.577 44.52L222.517 45H219.805L219.877 44.52ZM224.353 41.748L223.417 38.868L222.397 41.748H224.353Z" fill="white"/>
</svg>
