<svg width="20" height="20" viewBox="0 0 20 20" fill="none" xmlns="http://www.w3.org/2000/svg">
<path d="M20.0003 10.0009C20.0003 6.03629 17.6931 2.61066 14.3481 0.993164V19.0086C17.6931 17.3911 20.0003 13.9655 20.0003 10.0009Z" fill="#D80027"/>
<path d="M0 10.0004C0 13.965 2.30723 17.3906 5.65219 19.0081V0.992676C2.30723 2.61018 0 6.0358 0 10.0004Z" fill="#D80027"/>
<path d="M11.7392 11.3052L13.4783 10.4356L12.6088 10.0009V9.1313L10.8697 10.0009L11.7392 8.26173H10.8697L10.0001 6.9574L9.13052 8.26173H8.26095L9.13052 10.0009L7.39138 9.1313V10.0009L6.52185 10.4356L8.26095 11.3052L7.82619 12.1748H9.56533V13.4791H10.4349V12.1748H12.174L11.7392 11.3052Z" fill="#D80027"/>
</svg>
