<svg width="14" height="14" viewBox="0 0 14 14" fill="none" xmlns="http://www.w3.org/2000/svg">
<path d="M11.8125 1.85938H4.8125C4.72548 1.85938 4.64202 1.89395 4.58048 1.95548C4.51895 2.01702 4.48438 2.10048 4.48438 2.1875V4.48438H2.1875C2.10048 4.48438 2.01702 4.51895 1.95548 4.58048C1.89395 4.64202 1.85938 4.72548 1.85938 4.8125V11.8125C1.85938 11.8995 1.89395 11.983 1.95548 12.0445C2.01702 12.1061 2.10048 12.1406 2.1875 12.1406H9.1875C9.27452 12.1406 9.35798 12.1061 9.41952 12.0445C9.48106 11.983 9.51562 11.8995 9.51562 11.8125V9.51562H11.8125C11.8995 9.51562 11.983 9.48106 12.0445 9.41952C12.1061 9.35798 12.1406 9.27452 12.1406 9.1875V2.1875C12.1406 2.10048 12.1061 2.01702 12.0445 1.95548C11.983 1.89395 11.8995 1.85938 11.8125 1.85938ZM8.85938 11.4844H2.51562V5.14062H8.85938V11.4844ZM11.4844 8.85938H9.51562V4.8125C9.51562 4.72548 9.48106 4.64202 9.41952 4.58048C9.35798 4.51895 9.27452 4.48438 9.1875 4.48438H5.14062V2.51562H11.4844V8.85938Z" fill="black"/>
</svg>
