<svg width="166" height="47" viewBox="0 0 166 47" fill="none" xmlns="http://www.w3.org/2000/svg">
<path d="M11.2 36.35C9.33333 36.35 7.5 36.1333 5.7 35.7C3.93333 35.2667 2.33333 34.6333 0.9 33.8L3.4 24.95L7.05 25.6C6.81667 27.5333 6.7 28.8833 6.7 29.65C6.7 30.45 6.75 31.2 6.85 31.9C8.15 32.9667 9.58333 33.5 11.15 33.5C12.65 33.5 13.8833 33 14.85 32C15.85 31 16.35 29.65 16.35 27.95C16.35 26.55 15.9167 25.3833 15.05 24.45C14.2167 23.4833 12.7833 22.4667 10.75 21.4C8.51667 20.2667 6.83333 19.05 5.7 17.75C4.6 16.45 4.05 14.9 4.05 13.1C4.05 11 4.61667 9.13333 5.75 7.5C6.91667 5.83333 8.48333 4.55 10.45 3.65C12.4167 2.71667 14.5667 2.25 16.9 2.25C18.6333 2.25 20.2167 2.51667 21.65 3.05C23.0833 3.58333 24.2 4.3 25 5.2C25.8 6.1 26.2 7.1 26.2 8.2C26.2 9.43333 25.8333 10.45 25.1 11.25C24.3667 12.05 23.45 12.45 22.35 12.45C21.0833 12.45 19.8833 11.95 18.75 10.95C19.3167 10.4167 19.75 9.86667 20.05 9.3C20.3833 8.7 20.55 8.13333 20.55 7.6C20.55 6.76666 20.1833 6.11666 19.45 5.65C18.75 5.18333 17.7833 4.95 16.55 4.95C14.9833 4.95 13.7 5.4 12.7 6.3C11.7 7.16667 11.2 8.33333 11.2 9.8C11.2 11 11.6 12.0167 12.4 12.85C13.2333 13.65 14.75 14.6167 16.95 15.75C19.3167 16.9833 21.0667 18.3167 22.2 19.75C23.3333 21.1833 23.9 22.9 23.9 24.9C23.9 27.2 23.35 29.2167 22.25 30.95C21.1833 32.6833 19.6833 34.0167 17.75 34.95C15.8167 35.8833 13.6333 36.35 11.2 36.35ZM28.0852 17.7C27.8185 15.6333 26.7185 14.6167 24.7852 14.65L24.4852 13.05C25.2185 12.5833 26.2352 12.2167 27.5352 11.95C28.8352 11.6833 30.2185 11.55 31.6852 11.55C32.5185 11.55 33.1352 11.5667 33.5352 11.6L35.9352 29.7C37.7685 26.7 39.0852 24.4 39.8852 22.8C40.7185 21.2 41.2685 19.8167 41.5352 18.65C41.8018 17.4833 41.9352 16.05 41.9352 14.35V12.15C43.3352 11.9167 45.1518 11.8 47.3852 11.8L49.8352 30C52.4018 26 54.1852 22.95 55.1852 20.85C56.2185 18.7167 56.7352 17.1 56.7352 16C56.7352 14.8333 55.9685 14.2167 54.4352 14.15L54.2352 12.3C56.0018 11.7667 57.8852 11.5 59.8852 11.5C60.7852 11.5 61.4518 11.5333 61.8852 11.6L62.7352 12.9C62.7352 13.6333 62.2685 15.0333 61.3352 17.1C60.4352 19.1667 59.3852 21.1 58.1852 22.9L49.1352 36.35C47.0685 36.35 45.5018 36.2333 44.4352 36L42.8852 24.35L35.2352 36.35C34.9352 36.3833 34.4685 36.4 33.8352 36.4C32.5018 36.4 31.4018 36.2667 30.5352 36L28.0852 17.7ZM70.4734 47C69.4068 47 68.5068 46.6833 67.7734 46.05C67.0734 45.45 66.7234 44.6 66.7234 43.5C66.7234 42.5333 67.0234 41.45 67.6234 40.25C68.2568 39.0833 69.1068 37.75 70.1734 36.25C69.2401 36.1833 68.6068 36.1 68.2734 36L65.8234 17.7C65.6901 16.6333 65.3734 15.8667 64.8734 15.4C64.3734 14.9 63.6734 14.65 62.7734 14.65L62.4734 13.05C63.2068 12.5833 64.2568 12.2167 65.6234 11.95C67.0234 11.6833 68.5068 11.55 70.0734 11.55C70.9068 11.55 71.5401 11.5667 71.9734 11.6L74.4234 30.25C76.1901 27.45 77.6068 24.9833 78.6734 22.85C79.7734 20.6833 80.5068 19.1167 80.8734 18.15C81.1401 17.35 81.2734 16.6333 81.2734 16C81.2734 15.2667 81.0568 14.7833 80.6234 14.55C80.1901 14.3167 79.6568 14.1833 79.0234 14.15L78.8234 12.3C80.5901 11.7667 82.4734 11.5 84.4734 11.5C85.0068 11.5 85.6734 11.5333 86.4734 11.6L87.3234 12.9C86.5901 15.9 85.2734 18.9333 83.3734 22L72.2734 39.25C71.7401 40.0833 71.4734 40.7833 71.4734 41.35C71.4734 41.75 71.6068 42.0667 71.8734 42.3C72.1734 42.5667 72.5734 42.7 73.0734 42.7C73.7068 42.7 74.2734 42.5 74.7734 42.1C74.8401 42.5667 74.8734 42.9 74.8734 43.1C74.8734 44.1667 74.4568 45.0833 73.6234 45.85C72.8234 46.6167 71.7734 47 70.4734 47ZM84.684 46.95C82.8173 46.95 81.3507 46.5667 80.284 45.8C79.2173 45.0333 78.684 43.9833 78.684 42.65C78.684 41.5833 79.0173 40.7167 79.684 40.05C80.3507 39.3833 81.1673 39.05 82.134 39.05C82.8007 39.05 83.384 39.2333 83.884 39.6C84.384 39.9667 84.7007 40.4833 84.834 41.15C84.5007 41.3167 84.234 41.55 84.034 41.85C83.834 42.1833 83.734 42.55 83.734 42.95C83.734 43.45 83.9007 43.8333 84.234 44.1C84.534 44.4 84.9507 44.55 85.484 44.55C86.9173 44.55 87.884 43.4833 88.384 41.35C88.584 40.4167 88.784 38.8167 88.984 36.55C89.1173 34.6833 89.2507 33.3333 89.384 32.5L92.034 15.25H88.084L88.484 13.2C89.984 12.9667 91.334 12.6 92.534 12.1L92.884 9.9C93.184 8.13333 93.8173 6.55 94.784 5.15C95.7507 3.71667 96.984 2.6 98.484 1.8C100.017 0.966665 101.717 0.549997 103.584 0.549997C105.417 0.549997 106.901 0.949997 108.034 1.75C109.201 2.51666 109.784 3.51666 109.784 4.75C109.784 5.95 109.417 6.9 108.684 7.6C107.951 8.26667 107.084 8.6 106.084 8.6C105.384 8.6 104.784 8.41667 104.284 8.05C103.784 7.65 103.517 7.11667 103.484 6.45C104.384 5.75 104.834 4.96666 104.834 4.1C104.834 3.03333 104.217 2.5 102.984 2.5C101.951 2.5 101.084 2.95 100.384 3.85C99.7173 4.71667 99.384 5.88333 99.384 7.35C99.384 7.78333 99.4007 8.16667 99.434 8.5C99.4673 8.8 99.5007 9.06667 99.534 9.3C99.634 9.9 99.684 10.45 99.684 10.95C99.684 11.1833 99.6507 11.5667 99.584 12.1H104.784L104.284 15.25H99.084L96.284 33.05C95.884 35.65 95.3507 37.9 94.684 39.8C94.0173 41.7333 92.884 43.4 91.284 44.8C89.684 46.2333 87.484 46.95 84.684 46.95ZM111.284 36.2C109.551 36.2 108.234 35.8 107.334 35C106.468 34.2 106.034 33.0667 106.034 31.6C106.034 30.9 106.684 26.4667 107.984 18.3L108.484 15.35H104.934L105.284 13.15C106.984 12.55 108.568 11.7 110.034 10.6C111.534 9.5 112.768 8.23333 113.734 6.8H116.984L116.184 12.1H122.584L122.034 15.35H115.584L115.134 18.05C114.934 19.35 114.568 21.7 114.034 25.1C113.501 28.4667 113.234 30.35 113.234 30.75C113.234 31.9167 113.851 32.5 115.084 32.5C115.618 32.5 116.301 32.3167 117.134 31.95C118.001 31.5833 118.768 31.1833 119.434 30.75L120.634 32.4C119.534 33.4333 118.101 34.3333 116.334 35.1C114.568 35.8333 112.884 36.2 111.284 36.2ZM132.272 36.35C129.272 36.35 126.889 35.4833 125.122 33.75C123.355 31.9833 122.472 29.6 122.472 26.6C122.472 23.6667 123.055 21.05 124.222 18.75C125.389 16.45 127.039 14.65 129.172 13.35C131.339 12.05 133.839 11.4 136.672 11.4C139.405 11.4 141.472 11.8833 142.872 12.85C144.272 13.8167 144.972 15.05 144.972 16.55C144.972 19.35 143.622 21.55 140.922 23.15C138.222 24.7167 134.455 25.5 129.622 25.5C129.489 26.4667 129.422 27.3 129.422 28C129.422 29.5667 129.839 30.7833 130.672 31.65C131.505 32.4833 132.689 32.9 134.222 32.9C135.455 32.9 136.755 32.65 138.122 32.15C139.522 31.65 140.739 30.9833 141.772 30.15L143.422 32.1C141.822 33.4333 140.039 34.4833 138.072 35.25C136.139 35.9833 134.205 36.35 132.272 36.35ZM130.072 22.6C131.572 22.5667 132.989 22.2667 134.322 21.7C135.655 21.1333 136.722 20.4 137.522 19.5C138.355 18.5667 138.772 17.5667 138.772 16.5C138.772 15.6667 138.555 15.0167 138.122 14.55C137.689 14.0833 137.039 13.85 136.172 13.85C134.505 13.85 133.205 14.5833 132.272 16.05C131.372 17.4833 130.639 19.6667 130.072 22.6ZM152.993 36.4C151.693 36.4 150.326 36.1667 148.893 35.7C147.46 35.2 146.243 34.55 145.243 33.75L146.843 27.5L149.593 28C149.526 28.8 149.493 29.55 149.493 30.25C149.493 30.9833 149.543 31.65 149.643 32.25C149.976 32.7167 150.493 33.1167 151.193 33.45C151.893 33.75 152.66 33.9 153.493 33.9C154.593 33.9 155.526 33.55 156.293 32.85C157.06 32.1167 157.443 31.2 157.443 30.1C157.443 29.2333 157.076 28.4667 156.343 27.8C155.643 27.1333 154.443 26.4667 152.743 25.8C150.843 25.0333 149.443 24.1333 148.543 23.1C147.676 22.0333 147.243 20.6667 147.243 19C147.243 17.6 147.643 16.3167 148.443 15.15C149.243 13.9833 150.426 13.0667 151.993 12.4C153.56 11.7333 155.46 11.4 157.693 11.4C159.993 11.4 161.91 11.8833 163.443 12.85C165.01 13.7833 165.793 14.9833 165.793 16.45C165.793 17.45 165.426 18.2833 164.693 18.95C163.993 19.6167 163.093 19.95 161.993 19.95C161.293 19.95 160.66 19.8 160.093 19.5C159.526 19.2 159.093 18.8 158.793 18.3C159.226 18 159.56 17.6333 159.793 17.2C160.06 16.7333 160.193 16.2667 160.193 15.8C160.193 15.1667 159.943 14.65 159.443 14.25C158.976 13.85 158.31 13.65 157.443 13.65C156.376 13.65 155.476 14 154.743 14.7C154.043 15.4 153.693 16.2333 153.693 17.2C153.693 18.0667 154.026 18.8 154.693 19.4C155.393 19.9667 156.676 20.6167 158.543 21.35C160.476 22.1167 161.91 23.05 162.843 24.15C163.776 25.2167 164.243 26.4833 164.243 27.95C164.243 30.4167 163.31 32.45 161.443 34.05C159.61 35.6167 156.793 36.4 152.993 36.4Z" fill="black"/>
</svg>
