<svg width="12" height="12" viewBox="0 0 12 12" fill="none" xmlns="http://www.w3.org/2000/svg">
<path d="M5.41675 8.9165H6.58341V5.4165H5.41675V8.9165ZM6.00008 4.24984C6.16536 4.24984 6.304 4.19384 6.416 4.08184C6.528 3.96984 6.5838 3.83139 6.58341 3.6665C6.58341 3.50123 6.52741 3.36259 6.41541 3.25059C6.30341 3.13859 6.16497 3.08278 6.00008 3.08317C5.8348 3.08317 5.69616 3.13917 5.58416 3.25117C5.47216 3.36317 5.41636 3.50161 5.41675 3.6665C5.41675 3.83178 5.47275 3.97042 5.58475 4.08242C5.69675 4.19442 5.83519 4.25023 6.00008 4.24984ZM6.00008 11.8332C5.19314 11.8332 4.4348 11.6799 3.72508 11.3735C3.01536 11.0671 2.398 10.6515 1.873 10.1269C1.348 9.60192 0.93247 8.98456 0.626415 8.27484C0.320359 7.56511 0.167137 6.80678 0.166748 5.99984C0.166748 5.19289 0.31997 4.43456 0.626415 3.72484C0.932859 3.01512 1.34839 2.39775 1.873 1.87275C2.398 1.34775 3.01536 0.932226 3.72508 0.626171C4.4348 0.320115 5.19314 0.166893 6.00008 0.166504C6.80703 0.166504 7.56536 0.319726 8.27508 0.626171C8.9848 0.932615 9.60217 1.34814 10.1272 1.87275C10.6522 2.39775 11.0679 3.01512 11.3743 3.72484C11.6808 4.43456 11.8338 5.19289 11.8334 5.99984C11.8334 6.80678 11.6802 7.56511 11.3737 8.27484C11.0673 8.98456 10.6518 9.60192 10.1272 10.1269C9.60217 10.6519 8.9848 11.0676 8.27508 11.3741C7.56536 11.6805 6.80703 11.8336 6.00008 11.8332ZM6.00008 10.6665C7.30286 10.6665 8.40633 10.2144 9.3105 9.31025C10.2147 8.40609 10.6667 7.30261 10.6667 5.99984C10.6667 4.69706 10.2147 3.59359 9.3105 2.68942C8.40633 1.78525 7.30286 1.33317 6.00008 1.33317C4.6973 1.33317 3.59383 1.78525 2.68966 2.68942C1.7855 3.59359 1.33341 4.69706 1.33341 5.99984C1.33341 7.30261 1.7855 8.40609 2.68966 9.31025C3.59383 10.2144 4.6973 10.6665 6.00008 10.6665Z" fill="black"/>
</svg>
