<svg width="32" height="32" viewBox="0 0 32 32" fill="none" xmlns="http://www.w3.org/2000/svg">
<path d="M19.6133 28.9466L24.9466 23.6133C25.0709 23.489 25.1696 23.3414 25.2368 23.179C25.3041 23.0166 25.3387 22.8425 25.3387 22.6666C25.3387 22.3116 25.1977 21.9711 24.9466 21.72C24.6956 21.4689 24.355 21.3279 24 21.3279C23.6449 21.3279 23.3044 21.4689 23.0533 21.72L20 24.7866L20 9.33332C20 8.97969 19.8595 8.64056 19.6094 8.39051C19.3594 8.14046 19.0202 7.99998 18.6666 7.99998C18.313 7.99998 17.9739 8.14046 17.7238 8.39051C17.4738 8.64056 17.3333 8.97969 17.3333 9.33332L17.3333 28C17.3346 28.2632 17.4138 28.5202 17.5609 28.7385C17.708 28.9568 17.9165 29.1266 18.16 29.2266C18.4028 29.3288 18.6704 29.3566 18.929 29.3068C19.1877 29.257 19.4258 29.1317 19.6133 28.9466ZM14.6666 22.6666L14.6666 3.99998C14.6653 3.73675 14.5861 3.47979 14.439 3.2615C14.2919 3.04321 14.0834 2.87334 13.84 2.77332C13.5971 2.67121 13.3295 2.64331 13.0709 2.69315C12.8122 2.74298 12.5741 2.86831 12.3866 3.05332L7.05329 8.38665C6.92832 8.5106 6.82912 8.65807 6.76143 8.82055C6.69374 8.98303 6.65889 9.1573 6.65889 9.33332C6.65889 9.50933 6.69374 9.68361 6.76143 9.84608C6.82912 10.0086 6.92832 10.156 7.05329 10.28C7.17724 10.405 7.32471 10.5041 7.48719 10.5718C7.64967 10.6395 7.82394 10.6744 7.99996 10.6744C8.17597 10.6744 8.35025 10.6395 8.51273 10.5718C8.67521 10.5041 8.82267 10.405 8.94662 10.28L12 7.21332L12 22.6666C12 23.0203 12.1404 23.3594 12.3905 23.6095C12.6405 23.8595 12.9797 24 13.3333 24C13.6869 24 14.026 23.8595 14.2761 23.6095C14.5261 23.3594 14.6666 23.0203 14.6666 22.6666Z" fill="black"/>
</svg>
